solid OpenSCAD_Model
  facet normal -0.994522 0.104528 0
    outer loop
      vertex -30 0 0
      vertex -30 0 20
      vertex -29.3444 6.23735 0
    endloop
  endfacet
  facet normal -0.994522 0.104528 0
    outer loop
      vertex -29.3444 6.23735 0
      vertex -30 0 20
      vertex -29.3444 6.23735 20
    endloop
  endfacet
  facet normal -0.994522 -0.104528 0
    outer loop
      vertex -30 0 0
      vertex -29.3444 -6.23735 0
      vertex -30 0 20
    endloop
  endfacet
  facet normal -0.994522 -0.104528 0
    outer loop
      vertex -30 0 20
      vertex -29.3444 -6.23735 0
      vertex -29.3444 -6.23735 20
    endloop
  endfacet
  facet normal 0 0 -1
    outer loop
      vertex -30 0 0
      vertex -29.3444 6.23735 0
      vertex -29.3444 -6.23735 0
    endloop
  endfacet
  facet normal 0 0 -1
    outer loop
      vertex -29.3444 -6.23735 0
      vertex -29.3444 6.23735 0
      vertex -27.4064 12.2021 0
    endloop
  endfacet
  facet normal 0 0 -1
    outer loop
      vertex -29.3444 -6.23735 0
      vertex -27.4064 12.2021 0
      vertex -24.2705 17.6336 0
    endloop
  endfacet
  facet normal 0 0 -1
    outer loop
      vertex -29.3444 -6.23735 0
      vertex -24.2705 17.6336 0
      vertex -20.0739 22.2943 0
    endloop
  endfacet
  facet normal 0 0 -1
    outer loop
      vertex -29.3444 -6.23735 0
      vertex -20.0739 22.2943 0
      vertex -15 25.9808 0
    endloop
  endfacet
  facet normal 0 0 -1
    outer loop
      vertex -29.3444 -6.23735 0
      vertex -15 25.9808 0
      vertex -9.27051 28.5317 0
    endloop
  endfacet
  facet normal 0 0 -1
    outer loop
      vertex -29.3444 -6.23735 0
      vertex -9.27051 28.5317 0
      vertex -3.13585 29.8357 0
    endloop
  endfacet
  facet normal 0 0 -1
    outer loop
      vertex -29.3444 -6.23735 0
      vertex -3.13585 29.8357 0
      vertex 3.13585 29.8357 0
    endloop
  endfacet
  facet normal 0 0 -1
    outer loop
      vertex -29.3444 -6.23735 0
      vertex 3.13585 29.8357 0
      vertex 9.27051 28.5317 0
    endloop
  endfacet
  facet normal 0 0 -1
    outer loop
      vertex -29.3444 -6.23735 0
      vertex 9.27051 28.5317 0
      vertex 15 25.9808 0
    endloop
  endfacet
  facet normal 0 0 -1
    outer loop
      vertex -29.3444 -6.23735 0
      vertex 15 25.9808 0
      vertex 20.0739 22.2943 0
    endloop
  endfacet
  facet normal 0 0 -1
    outer loop
      vertex -29.3444 -6.23735 0
      vertex 20.0739 22.2943 0
      vertex 24.2705 17.6336 0
    endloop
  endfacet
  facet normal 0 0 -1
    outer loop
      vertex -29.3444 -6.23735 0
      vertex 24.2705 17.6336 0
      vertex 27.4064 12.2021 0
    endloop
  endfacet
  facet normal 0 0 -1
    outer loop
      vertex -29.3444 -6.23735 0
      vertex 27.4064 12.2021 0
      vertex 29.3444 6.23735 0
    endloop
  endfacet
  facet normal 0 0 -1
    outer loop
      vertex -29.3444 -6.23735 0
      vertex 29.3444 6.23735 0
      vertex 30 0 0
    endloop
  endfacet
  facet normal 0 0 -1
    outer loop
      vertex -29.3444 -6.23735 0
      vertex 30 0 0
      vertex 29.3444 -6.23735 0
    endloop
  endfacet
  facet normal 0 0 -1
    outer loop
      vertex -29.3444 -6.23735 0
      vertex 29.3444 -6.23735 0
      vertex 27.4064 -12.2021 0
    endloop
  endfacet
  facet normal 0 0 -1
    outer loop
      vertex -29.3444 -6.23735 0
      vertex 27.4064 -12.2021 0
      vertex 24.2705 -17.6336 0
    endloop
  endfacet
  facet normal 0 0 -1
    outer loop
      vertex -29.3444 -6.23735 0
      vertex 24.2705 -17.6336 0
      vertex 20.0739 -22.2943 0
    endloop
  endfacet
  facet normal 0 0 -1
    outer loop
      vertex -29.3444 -6.23735 0
      vertex 20.0739 -22.2943 0
      vertex 15 -25.9808 0
    endloop
  endfacet
  facet normal 0 0 -1
    outer loop
      vertex -29.3444 -6.23735 0
      vertex 15 -25.9808 0
      vertex 9.27051 -28.5317 0
    endloop
  endfacet
  facet normal 0 0 -1
    outer loop
      vertex -29.3444 -6.23735 0
      vertex 9.27051 -28.5317 0
      vertex 3.13585 -29.8357 0
    endloop
  endfacet
  facet normal 0 0 -1
    outer loop
      vertex -29.3444 -6.23735 0
      vertex 3.13585 -29.8357 0
      vertex -3.13585 -29.8357 0
    endloop
  endfacet
  facet normal 0 0 -1
    outer loop
      vertex -29.3444 -6.23735 0
      vertex -3.13585 -29.8357 0
      vertex -9.27051 -28.5317 0
    endloop
  endfacet
  facet normal 0 0 -1
    outer loop
      vertex -29.3444 -6.23735 0
      vertex -9.27051 -28.5317 0
      vertex -15 -25.9808 0
    endloop
  endfacet
  facet normal 0 0 -1
    outer loop
      vertex -29.3444 -6.23735 0
      vertex -15 -25.9808 0
      vertex -20.0739 -22.2943 0
    endloop
  endfacet
  facet normal 0 0 -1
    outer loop
      vertex -29.3444 -6.23735 0
      vertex -20.0739 -22.2943 0
      vertex -24.2705 -17.6336 0
    endloop
  endfacet
  facet normal 0 0 -1
    outer loop
      vertex -29.3444 -6.23735 0
      vertex -24.2705 -17.6336 0
      vertex -27.4064 -12.2021 0
    endloop
  endfacet
  facet normal -0.951057 0.309017 0
    outer loop
      vertex -29.3444 6.23735 0
      vertex -29.3444 6.23735 20
      vertex -27.4064 12.2021 0
    endloop
  endfacet
  facet normal -0.951057 0.309017 0
    outer loop
      vertex -27.4064 12.2021 0
      vertex -29.3444 6.23735 20
      vertex -27.4064 12.2021 20
    endloop
  endfacet
  facet normal 0 0 1
    outer loop
      vertex -29.3444 6.23735 20
      vertex -30 0 20
      vertex -29.3444 -6.23735 20
    endloop
  endfacet
  facet normal 0 0 1
    outer loop
      vertex 19.4048 -21.5512 20
      vertex 14.5 -25.1147 20
      vertex 20.0739 -22.2943 20
    endloop
  endfacet
  facet normal 0 0 1
    outer loop
      vertex -29 0 20
      vertex -29.3444 6.23735 20
      vertex -29.3444 -6.23735 20
    endloop
  endfacet
  facet normal 0 0 1
    outer loop
      vertex -27.4064 12.2021 20
      vertex -29.3444 6.23735 20
      vertex -24.2705 17.6336 20
    endloop
  endfacet
  facet normal 0 0 1
    outer loop
      vertex -27.4064 -12.2021 20
      vertex -28.3663 -6.02944 20
      vertex -29.3444 -6.23735 20
    endloop
  endfacet
  facet normal 0 0 1
    outer loop
      vertex -28.3663 -6.02944 20
      vertex -29 0 20
      vertex -29.3444 -6.23735 20
    endloop
  endfacet
  facet normal 0 0 1
    outer loop
      vertex 23.4615 -17.0458 20
      vertex 19.4048 -21.5512 20
      vertex 24.2705 -17.6336 20
    endloop
  endfacet
  facet normal 0 0 1
    outer loop
      vertex -19.4048 21.5512 20
      vertex -14.5 25.1147 20
      vertex -15 25.9808 20
    endloop
  endfacet
  facet normal 0 0 1
    outer loop
      vertex -24.2705 17.6336 20
      vertex -29.3444 6.23735 20
      vertex -26.4928 11.7954 20
    endloop
  endfacet
  facet normal 0 0 1
    outer loop
      vertex -24.2705 17.6336 20
      vertex -23.4615 17.0458 20
      vertex -20.0739 22.2943 20
    endloop
  endfacet
  facet normal 0 0 1
    outer loop
      vertex -24.2705 17.6336 20
      vertex -26.4928 11.7954 20
      vertex -23.4615 17.0458 20
    endloop
  endfacet
  facet normal 0 0 1
    outer loop
      vertex -20.0739 22.2943 20
      vertex -19.4048 21.5512 20
      vertex -15 25.9808 20
    endloop
  endfacet
  facet normal 0 0 1
    outer loop
      vertex -23.4615 17.0458 20
      vertex -19.4048 21.5512 20
      vertex -20.0739 22.2943 20
    endloop
  endfacet
  facet normal 0 0 1
    outer loop
      vertex -15 25.9808 20
      vertex -14.5 25.1147 20
      vertex -9.27051 28.5317 20
    endloop
  endfacet
  facet normal 0 0 1
    outer loop
      vertex -9.27051 28.5317 20
      vertex -8.96149 27.5806 20
      vertex -3.13585 29.8357 20
    endloop
  endfacet
  facet normal 0 0 1
    outer loop
      vertex -3.13585 29.8357 20
      vertex -3.03132 28.8411 20
      vertex 3.13585 29.8357 20
    endloop
  endfacet
  facet normal 0 0 1
    outer loop
      vertex 3.13585 29.8357 20
      vertex 3.03132 28.8411 20
      vertex 9.27051 28.5317 20
    endloop
  endfacet
  facet normal 0 0 1
    outer loop
      vertex 9.27051 28.5317 20
      vertex 8.96149 27.5806 20
      vertex 15 25.9808 20
    endloop
  endfacet
  facet normal 0 0 1
    outer loop
      vertex 15 25.9808 20
      vertex 14.5 25.1147 20
      vertex 20.0739 22.2943 20
    endloop
  endfacet
  facet normal 0 0 1
    outer loop
      vertex 20.0739 22.2943 20
      vertex 19.4048 21.5512 20
      vertex 24.2705 17.6336 20
    endloop
  endfacet
  facet normal 0 0 1
    outer loop
      vertex 24.2705 17.6336 20
      vertex 23.4615 17.0458 20
      vertex 27.4064 12.2021 20
    endloop
  endfacet
  facet normal 0 0 1
    outer loop
      vertex 27.4064 12.2021 20
      vertex 26.4928 11.7954 20
      vertex 29.3444 6.23735 20
    endloop
  endfacet
  facet normal 0 0 1
    outer loop
      vertex 29.3444 6.23735 20
      vertex 28.3663 6.02944 20
      vertex 30 0 20
    endloop
  endfacet
  facet normal 0 0 1
    outer loop
      vertex 30 0 20
      vertex 29 0 20
      vertex 29.3444 -6.23735 20
    endloop
  endfacet
  facet normal 0 0 1
    outer loop
      vertex 29 0 20
      vertex 28.3663 -6.02944 20
      vertex 29.3444 -6.23735 20
    endloop
  endfacet
  facet normal 0 0 1
    outer loop
      vertex 29.3444 -6.23735 20
      vertex 26.4928 -11.7954 20
      vertex 27.4064 -12.2021 20
    endloop
  endfacet
  facet normal 0 0 1
    outer loop
      vertex 27.4064 -12.2021 20
      vertex 23.4615 -17.0458 20
      vertex 24.2705 -17.6336 20
    endloop
  endfacet
  facet normal 0 0 1
    outer loop
      vertex -14.5 25.1147 20
      vertex -8.96149 27.5806 20
      vertex -9.27051 28.5317 20
    endloop
  endfacet
  facet normal 0 0 1
    outer loop
      vertex 24.2705 -17.6336 20
      vertex 19.4048 -21.5512 20
      vertex 20.0739 -22.2943 20
    endloop
  endfacet
  facet normal 0 0 1
    outer loop
      vertex -8.96149 27.5806 20
      vertex -3.03132 28.8411 20
      vertex -3.13585 29.8357 20
    endloop
  endfacet
  facet normal 0 0 1
    outer loop
      vertex 20.0739 -22.2943 20
      vertex 14.5 -25.1147 20
      vertex 15 -25.9808 20
    endloop
  endfacet
  facet normal 0 0 1
    outer loop
      vertex -3.03132 28.8411 20
      vertex 3.03132 28.8411 20
      vertex 3.13585 29.8357 20
    endloop
  endfacet
  facet normal 0 0 1
    outer loop
      vertex 15 -25.9808 20
      vertex 8.96149 -27.5806 20
      vertex 9.27051 -28.5317 20
    endloop
  endfacet
  facet normal 0 0 1
    outer loop
      vertex 3.03132 28.8411 20
      vertex 8.96149 27.5806 20
      vertex 9.27051 28.5317 20
    endloop
  endfacet
  facet normal 0 0 1
    outer loop
      vertex 9.27051 -28.5317 20
      vertex 3.03132 -28.8411 20
      vertex 3.13585 -29.8357 20
    endloop
  endfacet
  facet normal 0 0 1
    outer loop
      vertex 8.96149 27.5806 20
      vertex 14.5 25.1147 20
      vertex 15 25.9808 20
    endloop
  endfacet
  facet normal 0 0 1
    outer loop
      vertex 3.13585 -29.8357 20
      vertex -3.03132 -28.8411 20
      vertex -3.13585 -29.8357 20
    endloop
  endfacet
  facet normal 0 0 1
    outer loop
      vertex 14.5 25.1147 20
      vertex 19.4048 21.5512 20
      vertex 20.0739 22.2943 20
    endloop
  endfacet
  facet normal 0 0 1
    outer loop
      vertex -3.13585 -29.8357 20
      vertex -8.96149 -27.5806 20
      vertex -9.27051 -28.5317 20
    endloop
  endfacet
  facet normal 0 0 1
    outer loop
      vertex 19.4048 21.5512 20
      vertex 23.4615 17.0458 20
      vertex 24.2705 17.6336 20
    endloop
  endfacet
  facet normal 0 0 1
    outer loop
      vertex -9.27051 -28.5317 20
      vertex -14.5 -25.1147 20
      vertex -15 -25.9808 20
    endloop
  endfacet
  facet normal 0 0 1
    outer loop
      vertex 23.4615 17.0458 20
      vertex 26.4928 11.7954 20
      vertex 27.4064 12.2021 20
    endloop
  endfacet
  facet normal 0 0 1
    outer loop
      vertex -15 -25.9808 20
      vertex -19.4048 -21.5512 20
      vertex -20.0739 -22.2943 20
    endloop
  endfacet
  facet normal 0 0 1
    outer loop
      vertex 26.4928 11.7954 20
      vertex 28.3663 6.02944 20
      vertex 29.3444 6.23735 20
    endloop
  endfacet
  facet normal 0 0 1
    outer loop
      vertex -20.0739 -22.2943 20
      vertex -23.4615 -17.0458 20
      vertex -24.2705 -17.6336 20
    endloop
  endfacet
  facet normal 0 0 1
    outer loop
      vertex 28.3663 6.02944 20
      vertex 29 0 20
      vertex 30 0 20
    endloop
  endfacet
  facet normal 0 0 1
    outer loop
      vertex -24.2705 -17.6336 20
      vertex -26.4928 -11.7954 20
      vertex -27.4064 -12.2021 20
    endloop
  endfacet
  facet normal 0 0 1
    outer loop
      vertex 28.3663 -6.02944 20
      vertex 26.4928 -11.7954 20
      vertex 29.3444 -6.23735 20
    endloop
  endfacet
  facet normal 0 0 1
    outer loop
      vertex -26.4928 -11.7954 20
      vertex -28.3663 -6.02944 20
      vertex -27.4064 -12.2021 20
    endloop
  endfacet
  facet normal 0 0 1
    outer loop
      vertex 14.5 -25.1147 20
      vertex 8.96149 -27.5806 20
      vertex 15 -25.9808 20
    endloop
  endfacet
  facet normal 0 0 1
    outer loop
      vertex 8.96149 -27.5806 20
      vertex 3.03132 -28.8411 20
      vertex 9.27051 -28.5317 20
    endloop
  endfacet
  facet normal 0 0 1
    outer loop
      vertex 3.03132 -28.8411 20
      vertex -3.03132 -28.8411 20
      vertex 3.13585 -29.8357 20
    endloop
  endfacet
  facet normal 0 0 1
    outer loop
      vertex -3.03132 -28.8411 20
      vertex -8.96149 -27.5806 20
      vertex -3.13585 -29.8357 20
    endloop
  endfacet
  facet normal 0 0 1
    outer loop
      vertex -8.96149 -27.5806 20
      vertex -14.5 -25.1147 20
      vertex -9.27051 -28.5317 20
    endloop
  endfacet
  facet normal 0 0 1
    outer loop
      vertex -14.5 -25.1147 20
      vertex -19.4048 -21.5512 20
      vertex -15 -25.9808 20
    endloop
  endfacet
  facet normal 0 0 1
    outer loop
      vertex -19.4048 -21.5512 20
      vertex -23.4615 -17.0458 20
      vertex -20.0739 -22.2943 20
    endloop
  endfacet
  facet normal 0 0 1
    outer loop
      vertex -23.4615 -17.0458 20
      vertex -26.4928 -11.7954 20
      vertex -24.2705 -17.6336 20
    endloop
  endfacet
  facet normal 0 0 1
    outer loop
      vertex -29 0 20
      vertex -28.3663 6.02944 20
      vertex -29.3444 6.23735 20
    endloop
  endfacet
  facet normal 0 0 1
    outer loop
      vertex 26.4928 -11.7954 20
      vertex 23.4615 -17.0458 20
      vertex 27.4064 -12.2021 20
    endloop
  endfacet
  facet normal 0 0 1
    outer loop
      vertex -28.3663 6.02944 20
      vertex -26.4928 11.7954 20
      vertex -29.3444 6.23735 20
    endloop
  endfacet
  facet normal -0.951057 -0.309017 0
    outer loop
      vertex -29.3444 -6.23735 0
      vertex -27.4064 -12.2021 0
      vertex -29.3444 -6.23735 20
    endloop
  endfacet
  facet normal -0.951057 -0.309017 0
    outer loop
      vertex -29.3444 -6.23735 20
      vertex -27.4064 -12.2021 0
      vertex -27.4064 -12.2021 20
    endloop
  endfacet
  facet normal -0.866025 -0.5 0
    outer loop
      vertex -27.4064 -12.2021 0
      vertex -24.2705 -17.6336 0
      vertex -27.4064 -12.2021 20
    endloop
  endfacet
  facet normal -0.866025 -0.5 0
    outer loop
      vertex -27.4064 -12.2021 20
      vertex -24.2705 -17.6336 0
      vertex -24.2705 -17.6336 20
    endloop
  endfacet
  facet normal -0.743145 -0.669131 0
    outer loop
      vertex -24.2705 -17.6336 0
      vertex -20.0739 -22.2943 0
      vertex -24.2705 -17.6336 20
    endloop
  endfacet
  facet normal -0.743145 -0.669131 0
    outer loop
      vertex -24.2705 -17.6336 20
      vertex -20.0739 -22.2943 0
      vertex -20.0739 -22.2943 20
    endloop
  endfacet
  facet normal -0.587785 -0.809017 0
    outer loop
      vertex -20.0739 -22.2943 20
      vertex -20.0739 -22.2943 0
      vertex -15 -25.9808 0
    endloop
  endfacet
  facet normal -0.587785 -0.809017 0
    outer loop
      vertex -15 -25.9808 20
      vertex -20.0739 -22.2943 20
      vertex -15 -25.9808 0
    endloop
  endfacet
  facet normal -0.406737 -0.913545 0
    outer loop
      vertex -15 -25.9808 20
      vertex -15 -25.9808 0
      vertex -9.27051 -28.5317 0
    endloop
  endfacet
  facet normal -0.406737 -0.913545 0
    outer loop
      vertex -9.27051 -28.5317 20
      vertex -15 -25.9808 20
      vertex -9.27051 -28.5317 0
    endloop
  endfacet
  facet normal -0.207912 -0.978148 0
    outer loop
      vertex -9.27051 -28.5317 20
      vertex -9.27051 -28.5317 0
      vertex -3.13585 -29.8357 0
    endloop
  endfacet
  facet normal -0.207912 -0.978148 0
    outer loop
      vertex -3.13585 -29.8357 20
      vertex -9.27051 -28.5317 20
      vertex -3.13585 -29.8357 0
    endloop
  endfacet
  facet normal 0 -1 0
    outer loop
      vertex -3.13585 -29.8357 20
      vertex -3.13585 -29.8357 0
      vertex 3.13585 -29.8357 0
    endloop
  endfacet
  facet normal 0 -1 0
    outer loop
      vertex 3.13585 -29.8357 20
      vertex -3.13585 -29.8357 20
      vertex 3.13585 -29.8357 0
    endloop
  endfacet
  facet normal 0.207912 -0.978148 0
    outer loop
      vertex 3.13585 -29.8357 20
      vertex 3.13585 -29.8357 0
      vertex 9.27051 -28.5317 0
    endloop
  endfacet
  facet normal 0.207912 -0.978148 0
    outer loop
      vertex 9.27051 -28.5317 20
      vertex 3.13585 -29.8357 20
      vertex 9.27051 -28.5317 0
    endloop
  endfacet
  facet normal 0.406737 -0.913545 0
    outer loop
      vertex 9.27051 -28.5317 20
      vertex 9.27051 -28.5317 0
      vertex 15 -25.9808 0
    endloop
  endfacet
  facet normal 0.406737 -0.913545 0
    outer loop
      vertex 15 -25.9808 20
      vertex 9.27051 -28.5317 20
      vertex 15 -25.9808 0
    endloop
  endfacet
  facet normal 0.587785 -0.809017 0
    outer loop
      vertex 15 -25.9808 20
      vertex 15 -25.9808 0
      vertex 20.0739 -22.2943 0
    endloop
  endfacet
  facet normal 0.587785 -0.809017 0
    outer loop
      vertex 20.0739 -22.2943 20
      vertex 15 -25.9808 20
      vertex 20.0739 -22.2943 0
    endloop
  endfacet
  facet normal 0.743145 -0.669131 0
    outer loop
      vertex 20.0739 -22.2943 20
      vertex 20.0739 -22.2943 0
      vertex 24.2705 -17.6336 0
    endloop
  endfacet
  facet normal 0.743145 -0.669131 0
    outer loop
      vertex 24.2705 -17.6336 20
      vertex 20.0739 -22.2943 20
      vertex 24.2705 -17.6336 0
    endloop
  endfacet
  facet normal 0.866025 -0.5 0
    outer loop
      vertex 24.2705 -17.6336 20
      vertex 24.2705 -17.6336 0
      vertex 27.4064 -12.2021 0
    endloop
  endfacet
  facet normal 0.866025 -0.5 0
    outer loop
      vertex 27.4064 -12.2021 20
      vertex 24.2705 -17.6336 20
      vertex 27.4064 -12.2021 0
    endloop
  endfacet
  facet normal 0.951057 -0.309017 0
    outer loop
      vertex 27.4064 -12.2021 20
      vertex 27.4064 -12.2021 0
      vertex 29.3444 -6.23735 0
    endloop
  endfacet
  facet normal 0.951057 -0.309017 0
    outer loop
      vertex 29.3444 -6.23735 20
      vertex 27.4064 -12.2021 20
      vertex 29.3444 -6.23735 0
    endloop
  endfacet
  facet normal 0.994522 -0.104528 0
    outer loop
      vertex 29.3444 -6.23735 20
      vertex 29.3444 -6.23735 0
      vertex 30 0 0
    endloop
  endfacet
  facet normal 0.994522 -0.104528 0
    outer loop
      vertex 30 0 20
      vertex 29.3444 -6.23735 20
      vertex 30 0 0
    endloop
  endfacet
  facet normal 0.994522 0.104528 0
    outer loop
      vertex 30 0 0
      vertex 29.3444 6.23735 0
      vertex 29.3444 6.23735 20
    endloop
  endfacet
  facet normal 0.994522 0.104528 0
    outer loop
      vertex 30 0 20
      vertex 30 0 0
      vertex 29.3444 6.23735 20
    endloop
  endfacet
  facet normal 0.951057 0.309017 0
    outer loop
      vertex 29.3444 6.23735 0
      vertex 27.4064 12.2021 0
      vertex 27.4064 12.2021 20
    endloop
  endfacet
  facet normal 0.951057 0.309017 0
    outer loop
      vertex 29.3444 6.23735 20
      vertex 29.3444 6.23735 0
      vertex 27.4064 12.2021 20
    endloop
  endfacet
  facet normal 0.866025 0.5 0
    outer loop
      vertex 27.4064 12.2021 0
      vertex 24.2705 17.6336 0
      vertex 24.2705 17.6336 20
    endloop
  endfacet
  facet normal 0.866025 0.5 0
    outer loop
      vertex 27.4064 12.2021 20
      vertex 27.4064 12.2021 0
      vertex 24.2705 17.6336 20
    endloop
  endfacet
  facet normal 0.743145 0.669131 0
    outer loop
      vertex 24.2705 17.6336 0
      vertex 20.0739 22.2943 0
      vertex 20.0739 22.2943 20
    endloop
  endfacet
  facet normal 0.743145 0.669131 0
    outer loop
      vertex 24.2705 17.6336 20
      vertex 24.2705 17.6336 0
      vertex 20.0739 22.2943 20
    endloop
  endfacet
  facet normal 0.587785 0.809017 0
    outer loop
      vertex 15 25.9808 0
      vertex 15 25.9808 20
      vertex 20.0739 22.2943 0
    endloop
  endfacet
  facet normal 0.587785 0.809017 0
    outer loop
      vertex 20.0739 22.2943 0
      vertex 15 25.9808 20
      vertex 20.0739 22.2943 20
    endloop
  endfacet
  facet normal 0.406737 0.913545 0
    outer loop
      vertex 9.27051 28.5317 0
      vertex 9.27051 28.5317 20
      vertex 15 25.9808 0
    endloop
  endfacet
  facet normal 0.406737 0.913545 0
    outer loop
      vertex 15 25.9808 0
      vertex 9.27051 28.5317 20
      vertex 15 25.9808 20
    endloop
  endfacet
  facet normal 0.207912 0.978148 0
    outer loop
      vertex 3.13585 29.8357 0
      vertex 3.13585 29.8357 20
      vertex 9.27051 28.5317 0
    endloop
  endfacet
  facet normal 0.207912 0.978148 0
    outer loop
      vertex 9.27051 28.5317 0
      vertex 3.13585 29.8357 20
      vertex 9.27051 28.5317 20
    endloop
  endfacet
  facet normal 0 1 0
    outer loop
      vertex -3.13585 29.8357 0
      vertex -3.13585 29.8357 20
      vertex 3.13585 29.8357 0
    endloop
  endfacet
  facet normal 0 1 0
    outer loop
      vertex 3.13585 29.8357 0
      vertex -3.13585 29.8357 20
      vertex 3.13585 29.8357 20
    endloop
  endfacet
  facet normal -0.207912 0.978148 0
    outer loop
      vertex -9.27051 28.5317 0
      vertex -9.27051 28.5317 20
      vertex -3.13585 29.8357 0
    endloop
  endfacet
  facet normal -0.207912 0.978148 0
    outer loop
      vertex -3.13585 29.8357 0
      vertex -9.27051 28.5317 20
      vertex -3.13585 29.8357 20
    endloop
  endfacet
  facet normal -0.406737 0.913545 0
    outer loop
      vertex -15 25.9808 0
      vertex -15 25.9808 20
      vertex -9.27051 28.5317 0
    endloop
  endfacet
  facet normal -0.406737 0.913545 0
    outer loop
      vertex -9.27051 28.5317 0
      vertex -15 25.9808 20
      vertex -9.27051 28.5317 20
    endloop
  endfacet
  facet normal -0.587785 0.809017 0
    outer loop
      vertex -20.0739 22.2943 0
      vertex -20.0739 22.2943 20
      vertex -15 25.9808 0
    endloop
  endfacet
  facet normal -0.587785 0.809017 0
    outer loop
      vertex -15 25.9808 0
      vertex -20.0739 22.2943 20
      vertex -15 25.9808 20
    endloop
  endfacet
  facet normal -0.743145 0.669131 0
    outer loop
      vertex -24.2705 17.6336 0
      vertex -24.2705 17.6336 20
      vertex -20.0739 22.2943 0
    endloop
  endfacet
  facet normal -0.743145 0.669131 0
    outer loop
      vertex -20.0739 22.2943 0
      vertex -24.2705 17.6336 20
      vertex -20.0739 22.2943 20
    endloop
  endfacet
  facet normal -0.866025 0.5 0
    outer loop
      vertex -27.4064 12.2021 0
      vertex -27.4064 12.2021 20
      vertex -24.2705 17.6336 0
    endloop
  endfacet
  facet normal -0.866025 0.5 0
    outer loop
      vertex -24.2705 17.6336 0
      vertex -27.4064 12.2021 20
      vertex -24.2705 17.6336 20
    endloop
  endfacet
  facet normal 0.994522 0.104529 0
    outer loop
      vertex -29 0 20
      vertex -28.3663 -6.02944 20
      vertex -28.3663 -6.02944 10
    endloop
  endfacet
  facet normal 0.994522 0.104529 0
    outer loop
      vertex -29 0 10
      vertex -29 0 20
      vertex -28.3663 -6.02944 10
    endloop
  endfacet
  facet normal 0.951057 0.309017 0
    outer loop
      vertex -28.3663 -6.02944 20
      vertex -26.4928 -11.7954 20
      vertex -26.4928 -11.7954 10
    endloop
  endfacet
  facet normal 0.951057 0.309017 0
    outer loop
      vertex -28.3663 -6.02944 10
      vertex -28.3663 -6.02944 20
      vertex -26.4928 -11.7954 10
    endloop
  endfacet
  facet normal 0.866025 0.5 0
    outer loop
      vertex -26.4928 -11.7954 20
      vertex -23.4615 -17.0458 20
      vertex -23.4615 -17.0458 10
    endloop
  endfacet
  facet normal 0.866025 0.5 0
    outer loop
      vertex -26.4928 -11.7954 10
      vertex -26.4928 -11.7954 20
      vertex -23.4615 -17.0458 10
    endloop
  endfacet
  facet normal 0.743145 0.669131 0
    outer loop
      vertex -23.4615 -17.0458 20
      vertex -19.4048 -21.5512 20
      vertex -19.4048 -21.5512 10
    endloop
  endfacet
  facet normal 0.743145 0.669131 0
    outer loop
      vertex -23.4615 -17.0458 10
      vertex -23.4615 -17.0458 20
      vertex -19.4048 -21.5512 10
    endloop
  endfacet
  facet normal 0.587785 0.809017 0
    outer loop
      vertex -14.5 -25.1147 20
      vertex -14.5 -25.1147 10
      vertex -19.4048 -21.5512 20
    endloop
  endfacet
  facet normal 0.587785 0.809017 0
    outer loop
      vertex -19.4048 -21.5512 20
      vertex -14.5 -25.1147 10
      vertex -19.4048 -21.5512 10
    endloop
  endfacet
  facet normal 0.406737 0.913545 0
    outer loop
      vertex -8.96149 -27.5806 20
      vertex -8.96149 -27.5806 10
      vertex -14.5 -25.1147 20
    endloop
  endfacet
  facet normal 0.406737 0.913545 0
    outer loop
      vertex -14.5 -25.1147 20
      vertex -8.96149 -27.5806 10
      vertex -14.5 -25.1147 10
    endloop
  endfacet
  facet normal 0.207912 0.978148 0
    outer loop
      vertex -3.03132 -28.8411 20
      vertex -3.03132 -28.8411 10
      vertex -8.96149 -27.5806 20
    endloop
  endfacet
  facet normal 0.207912 0.978148 0
    outer loop
      vertex -8.96149 -27.5806 20
      vertex -3.03132 -28.8411 10
      vertex -8.96149 -27.5806 10
    endloop
  endfacet
  facet normal 0 1 0
    outer loop
      vertex 3.03132 -28.8411 20
      vertex 3.03132 -28.8411 10
      vertex -3.03132 -28.8411 20
    endloop
  endfacet
  facet normal 0 1 0
    outer loop
      vertex -3.03132 -28.8411 20
      vertex 3.03132 -28.8411 10
      vertex -3.03132 -28.8411 10
    endloop
  endfacet
  facet normal -0.207912 0.978148 0
    outer loop
      vertex 8.96149 -27.5806 20
      vertex 8.96149 -27.5806 10
      vertex 3.03132 -28.8411 20
    endloop
  endfacet
  facet normal -0.207912 0.978148 0
    outer loop
      vertex 3.03132 -28.8411 20
      vertex 8.96149 -27.5806 10
      vertex 3.03132 -28.8411 10
    endloop
  endfacet
  facet normal -0.406737 0.913545 0
    outer loop
      vertex 14.5 -25.1147 20
      vertex 14.5 -25.1147 10
      vertex 8.96149 -27.5806 20
    endloop
  endfacet
  facet normal -0.406737 0.913545 0
    outer loop
      vertex 8.96149 -27.5806 20
      vertex 14.5 -25.1147 10
      vertex 8.96149 -27.5806 10
    endloop
  endfacet
  facet normal -0.587785 0.809017 0
    outer loop
      vertex 19.4048 -21.5512 20
      vertex 19.4048 -21.5512 10
      vertex 14.5 -25.1147 20
    endloop
  endfacet
  facet normal -0.587785 0.809017 0
    outer loop
      vertex 14.5 -25.1147 20
      vertex 19.4048 -21.5512 10
      vertex 14.5 -25.1147 10
    endloop
  endfacet
  facet normal -0.743145 0.669131 0
    outer loop
      vertex 23.4615 -17.0458 20
      vertex 23.4615 -17.0458 10
      vertex 19.4048 -21.5512 20
    endloop
  endfacet
  facet normal -0.743145 0.669131 0
    outer loop
      vertex 19.4048 -21.5512 20
      vertex 23.4615 -17.0458 10
      vertex 19.4048 -21.5512 10
    endloop
  endfacet
  facet normal -0.866025 0.5 0
    outer loop
      vertex 26.4928 -11.7954 20
      vertex 26.4928 -11.7954 10
      vertex 23.4615 -17.0458 20
    endloop
  endfacet
  facet normal -0.866025 0.5 0
    outer loop
      vertex 23.4615 -17.0458 20
      vertex 26.4928 -11.7954 10
      vertex 23.4615 -17.0458 10
    endloop
  endfacet
  facet normal -0.951057 0.309017 0
    outer loop
      vertex 28.3663 -6.02944 20
      vertex 28.3663 -6.02944 10
      vertex 26.4928 -11.7954 20
    endloop
  endfacet
  facet normal -0.951057 0.309017 0
    outer loop
      vertex 26.4928 -11.7954 20
      vertex 28.3663 -6.02944 10
      vertex 26.4928 -11.7954 10
    endloop
  endfacet
  facet normal -0.994522 0.104529 0
    outer loop
      vertex 29 0 20
      vertex 29 0 10
      vertex 28.3663 -6.02944 20
    endloop
  endfacet
  facet normal -0.994522 0.104529 0
    outer loop
      vertex 28.3663 -6.02944 20
      vertex 29 0 10
      vertex 28.3663 -6.02944 10
    endloop
  endfacet
  facet normal -0.994522 -0.104529 0
    outer loop
      vertex 29 0 20
      vertex 28.3663 6.02944 20
      vertex 29 0 10
    endloop
  endfacet
  facet normal -0.994522 -0.104529 0
    outer loop
      vertex 29 0 10
      vertex 28.3663 6.02944 20
      vertex 28.3663 6.02944 10
    endloop
  endfacet
  facet normal -0.951057 -0.309017 0
    outer loop
      vertex 28.3663 6.02944 20
      vertex 26.4928 11.7954 20
      vertex 28.3663 6.02944 10
    endloop
  endfacet
  facet normal -0.951057 -0.309017 0
    outer loop
      vertex 28.3663 6.02944 10
      vertex 26.4928 11.7954 20
      vertex 26.4928 11.7954 10
    endloop
  endfacet
  facet normal -0.866025 -0.5 0
    outer loop
      vertex 26.4928 11.7954 20
      vertex 23.4615 17.0458 20
      vertex 26.4928 11.7954 10
    endloop
  endfacet
  facet normal -0.866025 -0.5 0
    outer loop
      vertex 26.4928 11.7954 10
      vertex 23.4615 17.0458 20
      vertex 23.4615 17.0458 10
    endloop
  endfacet
  facet normal -0.743145 -0.669131 0
    outer loop
      vertex 23.4615 17.0458 20
      vertex 19.4048 21.5512 20
      vertex 23.4615 17.0458 10
    endloop
  endfacet
  facet normal -0.743145 -0.669131 0
    outer loop
      vertex 23.4615 17.0458 10
      vertex 19.4048 21.5512 20
      vertex 19.4048 21.5512 10
    endloop
  endfacet
  facet normal -0.587785 -0.809017 0
    outer loop
      vertex 19.4048 21.5512 10
      vertex 19.4048 21.5512 20
      vertex 14.5 25.1147 20
    endloop
  endfacet
  facet normal -0.587785 -0.809017 0
    outer loop
      vertex 14.5 25.1147 10
      vertex 19.4048 21.5512 10
      vertex 14.5 25.1147 20
    endloop
  endfacet
  facet normal -0.406737 -0.913545 0
    outer loop
      vertex 14.5 25.1147 10
      vertex 14.5 25.1147 20
      vertex 8.96149 27.5806 20
    endloop
  endfacet
  facet normal -0.406737 -0.913545 0
    outer loop
      vertex 8.96149 27.5806 10
      vertex 14.5 25.1147 10
      vertex 8.96149 27.5806 20
    endloop
  endfacet
  facet normal -0.207912 -0.978148 0
    outer loop
      vertex 8.96149 27.5806 10
      vertex 8.96149 27.5806 20
      vertex 3.03132 28.8411 20
    endloop
  endfacet
  facet normal -0.207912 -0.978148 0
    outer loop
      vertex 3.03132 28.8411 10
      vertex 8.96149 27.5806 10
      vertex 3.03132 28.8411 20
    endloop
  endfacet
  facet normal 0 -1 0
    outer loop
      vertex 3.03132 28.8411 10
      vertex 3.03132 28.8411 20
      vertex -3.03132 28.8411 20
    endloop
  endfacet
  facet normal 0 -1 0
    outer loop
      vertex -3.03132 28.8411 10
      vertex 3.03132 28.8411 10
      vertex -3.03132 28.8411 20
    endloop
  endfacet
  facet normal 0.207912 -0.978148 0
    outer loop
      vertex -3.03132 28.8411 10
      vertex -3.03132 28.8411 20
      vertex -8.96149 27.5806 20
    endloop
  endfacet
  facet normal 0.207912 -0.978148 0
    outer loop
      vertex -8.96149 27.5806 10
      vertex -3.03132 28.8411 10
      vertex -8.96149 27.5806 20
    endloop
  endfacet
  facet normal 0.406737 -0.913545 0
    outer loop
      vertex -8.96149 27.5806 10
      vertex -8.96149 27.5806 20
      vertex -14.5 25.1147 20
    endloop
  endfacet
  facet normal 0.406737 -0.913545 0
    outer loop
      vertex -14.5 25.1147 10
      vertex -8.96149 27.5806 10
      vertex -14.5 25.1147 20
    endloop
  endfacet
  facet normal 0.587785 -0.809017 0
    outer loop
      vertex -14.5 25.1147 10
      vertex -14.5 25.1147 20
      vertex -19.4048 21.5512 20
    endloop
  endfacet
  facet normal 0.587785 -0.809017 0
    outer loop
      vertex -19.4048 21.5512 10
      vertex -14.5 25.1147 10
      vertex -19.4048 21.5512 20
    endloop
  endfacet
  facet normal 0.743145 -0.669131 0
    outer loop
      vertex -19.4048 21.5512 10
      vertex -19.4048 21.5512 20
      vertex -23.4615 17.0458 20
    endloop
  endfacet
  facet normal 0.743145 -0.669131 0
    outer loop
      vertex -23.4615 17.0458 10
      vertex -19.4048 21.5512 10
      vertex -23.4615 17.0458 20
    endloop
  endfacet
  facet normal 0.866025 -0.5 0
    outer loop
      vertex -23.4615 17.0458 10
      vertex -23.4615 17.0458 20
      vertex -26.4928 11.7954 20
    endloop
  endfacet
  facet normal 0.866025 -0.5 0
    outer loop
      vertex -26.4928 11.7954 10
      vertex -23.4615 17.0458 10
      vertex -26.4928 11.7954 20
    endloop
  endfacet
  facet normal 0.951057 -0.309017 0
    outer loop
      vertex -26.4928 11.7954 10
      vertex -26.4928 11.7954 20
      vertex -28.3663 6.02944 20
    endloop
  endfacet
  facet normal 0.951057 -0.309017 0
    outer loop
      vertex -28.3663 6.02944 10
      vertex -26.4928 11.7954 10
      vertex -28.3663 6.02944 20
    endloop
  endfacet
  facet normal 0.994522 -0.104529 0
    outer loop
      vertex -28.3663 6.02944 10
      vertex -28.3663 6.02944 20
      vertex -29 0 20
    endloop
  endfacet
  facet normal 0.994522 -0.104529 0
    outer loop
      vertex -29 0 10
      vertex -28.3663 6.02944 10
      vertex -29 0 20
    endloop
  endfacet
  facet normal 0 0 1
    outer loop
      vertex -28.3663 -6.02944 10
      vertex -26.4928 -11.7954 10
      vertex -23.4615 -17.0458 10
    endloop
  endfacet
  facet normal 0 0 1
    outer loop
      vertex -14.5 -25.1147 10
      vertex -28.3663 -6.02944 10
      vertex -19.4048 -21.5512 10
    endloop
  endfacet
  facet normal 0 0 1
    outer loop
      vertex -19.4048 -21.5512 10
      vertex -28.3663 -6.02944 10
      vertex -23.4615 -17.0458 10
    endloop
  endfacet
  facet normal 0 0 1
    outer loop
      vertex -8.96149 -27.5806 10
      vertex -28.3663 -6.02944 10
      vertex -14.5 -25.1147 10
    endloop
  endfacet
  facet normal 0 0 1
    outer loop
      vertex -3.03132 -28.8411 10
      vertex -28.3663 -6.02944 10
      vertex -8.96149 -27.5806 10
    endloop
  endfacet
  facet normal 0 0 1
    outer loop
      vertex 3.03132 -28.8411 10
      vertex -28.3663 -6.02944 10
      vertex -3.03132 -28.8411 10
    endloop
  endfacet
  facet normal 0 0 1
    outer loop
      vertex 8.96149 -27.5806 10
      vertex -28.3663 -6.02944 10
      vertex 3.03132 -28.8411 10
    endloop
  endfacet
  facet normal 0 0 1
    outer loop
      vertex 14.5 -25.1147 10
      vertex -28.3663 -6.02944 10
      vertex 8.96149 -27.5806 10
    endloop
  endfacet
  facet normal 0 0 1
    outer loop
      vertex 19.4048 -21.5512 10
      vertex -28.3663 -6.02944 10
      vertex 14.5 -25.1147 10
    endloop
  endfacet
  facet normal 0 0 1
    outer loop
      vertex 23.4615 -17.0458 10
      vertex -28.3663 -6.02944 10
      vertex 19.4048 -21.5512 10
    endloop
  endfacet
  facet normal 0 0 1
    outer loop
      vertex 26.4928 -11.7954 10
      vertex -28.3663 -6.02944 10
      vertex 23.4615 -17.0458 10
    endloop
  endfacet
  facet normal 0 0 1
    outer loop
      vertex 28.3663 -6.02944 10
      vertex -28.3663 -6.02944 10
      vertex 26.4928 -11.7954 10
    endloop
  endfacet
  facet normal 0 0 1
    outer loop
      vertex 29 0 10
      vertex -28.3663 -6.02944 10
      vertex 28.3663 -6.02944 10
    endloop
  endfacet
  facet normal 0 0 1
    outer loop
      vertex 28.3663 6.02944 10
      vertex -28.3663 -6.02944 10
      vertex 29 0 10
    endloop
  endfacet
  facet normal 0 0 1
    outer loop
      vertex 26.4928 11.7954 10
      vertex -28.3663 -6.02944 10
      vertex 28.3663 6.02944 10
    endloop
  endfacet
  facet normal 0 0 1
    outer loop
      vertex 23.4615 17.0458 10
      vertex -28.3663 -6.02944 10
      vertex 26.4928 11.7954 10
    endloop
  endfacet
  facet normal 0 0 1
    outer loop
      vertex 19.4048 21.5512 10
      vertex -28.3663 -6.02944 10
      vertex 23.4615 17.0458 10
    endloop
  endfacet
  facet normal 0 0 1
    outer loop
      vertex 14.5 25.1147 10
      vertex -28.3663 -6.02944 10
      vertex 19.4048 21.5512 10
    endloop
  endfacet
  facet normal 0 0 1
    outer loop
      vertex 8.96149 27.5806 10
      vertex -28.3663 -6.02944 10
      vertex 14.5 25.1147 10
    endloop
  endfacet
  facet normal 0 0 1
    outer loop
      vertex 3.03132 28.8411 10
      vertex -28.3663 -6.02944 10
      vertex 8.96149 27.5806 10
    endloop
  endfacet
  facet normal 0 0 1
    outer loop
      vertex -3.03132 28.8411 10
      vertex -28.3663 -6.02944 10
      vertex 3.03132 28.8411 10
    endloop
  endfacet
  facet normal 0 0 1
    outer loop
      vertex -8.96149 27.5806 10
      vertex -28.3663 -6.02944 10
      vertex -3.03132 28.8411 10
    endloop
  endfacet
  facet normal 0 0 1
    outer loop
      vertex -14.5 25.1147 10
      vertex -28.3663 -6.02944 10
      vertex -8.96149 27.5806 10
    endloop
  endfacet
  facet normal 0 0 1
    outer loop
      vertex -19.4048 21.5512 10
      vertex -28.3663 -6.02944 10
      vertex -14.5 25.1147 10
    endloop
  endfacet
  facet normal 0 0 1
    outer loop
      vertex -23.4615 17.0458 10
      vertex -28.3663 -6.02944 10
      vertex -19.4048 21.5512 10
    endloop
  endfacet
  facet normal 0 0 1
    outer loop
      vertex -26.4928 11.7954 10
      vertex -28.3663 -6.02944 10
      vertex -23.4615 17.0458 10
    endloop
  endfacet
  facet normal 0 0 1
    outer loop
      vertex -28.3663 6.02944 10
      vertex -28.3663 -6.02944 10
      vertex -26.4928 11.7954 10
    endloop
  endfacet
  facet normal 0 0 1
    outer loop
      vertex -29 0 10
      vertex -28.3663 -6.02944 10
      vertex -28.3663 6.02944 10
    endloop
  endfacet
endsolid OpenSCAD_Model
